# xmcd CD database file
#
# Track frame offsets:
#	150
#	12525
#	26101
#	40472
#	56008
#	70427
#	84595
#	100874
#	113651
#	126576
#	138987
#	151519
#	164903
#	178562
#	193211
#	208307
#	222562
#	236267
#	249605
#	263880
#
# Disc length: 3705 seconds
#
# Revision: 14
# Processed by: cddbd v1.5.2PL0 Copyright (c) Steve Scherf et al.
# Submitted via: CDex 1.51
#
DISCID=330e7714
DTITLE=Benny Goodman - Vol.01 - I Had To Do It
DYEAR=1900
DGENRE=Jazz
TTITLE0=Georgia Jubilee
TTITLE1=Junk Man
TTITLE2=Ol' Pappy
TTITLE3=Emaline
TTITLE4=I Ain't Lazy - I'm Just Dreamin'
TTITLE5=As Long As I Live
TTITLE6=Moon Glow
TTITLE7=Breakfast Ball
TTITLE8=Take My Word
TTITLE9=It Happens To The Best Of Friends
TTITLE10=Nitwit Seranade
TTITLE11=Bugle Call Rag
TTITLE12=Learning
TTITLE13=Stars Fell On Alabama
TTITLE14=Solitude
TTITLE15=I'm Gettin' Sentimental Over You
TTITLE16=I'm A Hundred Per Cent  For You
TTITLE17=Cokey
TTITLE18=Like A Bolt From The Blue
TTITLE19=Music Hall Rag
EXTD=
EXTT0=
EXTT1=
EXTT2=
EXTT3=
EXTT4=
EXTT5=
EXTT6=
EXTT7=
EXTT8=
EXTT9=
EXTT10=
EXTT11=
EXTT12=
EXTT13=
EXTT14=
EXTT15=
EXTT16=
EXTT17=
EXTT18=
EXTT19=
PLAYORDER=
